<?xml version="1.0" encoding="UTF-8"?>
<!DOCTYPE svg PUBLIC "-//W3C//DTD SVG 1.1//EN" "http://www.w3.org/Graphics/SVG/1.1/DTD/svg11.dtd">
<svg xmlns="http://www.w3.org/2000/svg" version="1.1" width="343px" height="343px" style="shape-rendering:geometricPrecision; text-rendering:geometricPrecision; image-rendering:optimizeQuality; fill-rule:evenodd; clip-rule:evenodd" xmlns:xlink="http://www.w3.org/1999/xlink">
<g><path style="opacity:0.013" fill="#fcfefa" d="M 247.5,22.5 C 220.5,23.1667 193.5,23.8333 166.5,24.5C 166.167,24.5 165.833,24.5 165.5,24.5C 165.167,24.5 164.833,24.5 164.5,24.5C 164.611,23.8826 164.944,23.3826 165.5,23C 192.831,22.5 220.165,22.3334 247.5,22.5 Z"/></g>
<g><path style="opacity:0.262" fill="#c4faba" d="M 247.5,22.5 C 249.027,22.427 250.027,23.0937 250.5,24.5C 250.167,24.5 249.833,24.5 249.5,24.5C 222.167,24.5 194.833,24.5 167.5,24.5C 167.167,24.5 166.833,24.5 166.5,24.5C 193.5,23.8333 220.5,23.1667 247.5,22.5 Z"/></g>
<g><path style="opacity:1" fill="#49e039" d="M 240.5,25.5 C 240.892,28.7216 240.392,31.7216 239,34.5C 238.199,32.4674 237.699,30.3008 237.5,28C 216.503,27.5 195.503,27.3334 174.5,27.5C 174.343,28.8734 174.51,30.2068 175,31.5C 177.167,33 179.333,34.5 181.5,36C 180.751,37.7337 180.251,39.567 180,41.5C 179.5,42.6667 178.667,43.5 177.5,44C 174.106,45.0755 170.772,46.2422 167.5,47.5C 169.279,46.3303 170.279,44.6636 170.5,42.5C 172.527,42.6621 174.527,42.4955 176.5,42C 178.363,40.5822 178.863,38.7489 178,36.5C 175.833,35 174,33.1667 172.5,31C 171.552,30.5172 170.552,30.3505 169.5,30.5C 168.549,29.0813 168.216,27.4147 168.5,25.5C 192.5,25.5 216.5,25.5 240.5,25.5 Z"/></g>
<g><path style="opacity:1" fill="#42e430" d="M 240.5,25.5 C 243.167,25.5 245.833,25.5 248.5,25.5C 248.02,28.4432 247.02,31.1098 245.5,33.5C 244.624,33.3691 243.957,33.7025 243.5,34.5C 242.357,37.2643 241.023,39.931 239.5,42.5C 235.974,50.2335 232.974,58.2335 230.5,66.5C 227.281,67.7196 225.615,70.0529 225.5,73.5C 221.842,74.3203 219.509,72.9869 218.5,69.5C 216.677,68.2528 214.677,67.5861 212.5,67.5C 212.938,63.0917 210.938,61.4251 206.5,62.5C 206.158,61.6618 205.492,61.3284 204.5,61.5C 204.083,60.8761 203.416,60.5427 202.5,60.5C 201.287,60.7472 200.62,61.4138 200.5,62.5C 198.5,63.1667 196.5,63.8333 194.5,64.5C 187.738,67.8793 180.738,70.7127 173.5,73C 170.518,75.6766 170.851,77.51 174.5,78.5C 179.437,82.975 184.77,86.975 190.5,90.5C 194.269,93.0899 197.935,95.9233 201.5,99C 202.749,99.7401 203.749,99.5735 204.5,98.5C 206.104,99.287 206.771,100.62 206.5,102.5C 207.552,102.351 208.552,102.517 209.5,103C 214.638,106.546 219.638,110.046 224.5,113.5C 225.611,118.22 228.611,120.886 233.5,121.5C 235.54,123.177 237.54,124.844 239.5,126.5C 239.461,127.583 239.127,128.583 238.5,129.5C 240.923,130.729 243.423,131.729 246,132.5C 245.667,133.833 245.333,135.167 245,136.5C 246.699,135.594 248.533,135.261 250.5,135.5C 250.5,136.5 250.5,137.5 250.5,138.5C 252.5,138.5 254.5,138.5 256.5,138.5C 259.5,140.5 262.5,142.5 265.5,144.5C 265.343,145.873 265.51,147.207 266,148.5C 273.742,150.916 279.242,155.75 282.5,163C 285.854,163.455 289.187,163.955 292.5,164.5C 303.403,171.11 313.736,178.444 323.5,186.5C 314.929,191.282 305.929,195.282 296.5,198.5C 290.88,199.153 285.546,200.653 280.5,203C 265.858,211.486 250.524,218.653 234.5,224.5C 229.933,227.786 224.933,229.953 219.5,231C 218.027,231.71 217.36,232.876 217.5,234.5C 214.133,236.623 210.466,237.956 206.5,238.5C 201.157,239.67 195.99,241.337 191,243.5C 184.415,242.582 178.249,240.582 172.5,237.5C 172.082,234.235 170.915,231.235 169,228.5C 168.333,226.5 168.333,224.5 169,222.5C 172.04,219.034 175.874,217.7 180.5,218.5C 180.351,217.448 180.517,216.448 181,215.5C 183.328,214.336 185.162,212.67 186.5,210.5C 188.527,210.662 190.527,210.495 192.5,210C 194.799,207.183 197.465,205.017 200.5,203.5C 200.953,202.542 201.619,201.708 202.5,201C 207.824,199.479 212.157,196.646 215.5,192.5C 218.063,191.912 220.396,190.912 222.5,189.5C 222.833,189.5 223.167,189.5 223.5,189.5C 226.73,186.623 229.896,183.623 233,180.5C 240.251,166.14 236.751,155.473 222.5,148.5C 218.733,145.913 215.067,143.08 211.5,140C 209.975,138.991 208.308,138.491 206.5,138.5C 206.67,137.178 206.337,136.011 205.5,135C 195.333,127.877 185.166,120.711 175,113.5C 174.517,112.552 174.351,111.552 174.5,110.5C 172.801,110.66 171.134,110.494 169.5,110C 161.879,103.786 153.879,97.9526 145.5,92.5C 139.363,87.595 133.03,82.9283 126.5,78.5C 123.404,76.9086 120.738,74.7419 118.5,72C 121.304,70.0326 123.97,67.8659 126.5,65.5C 131.341,62.9138 136.341,60.5804 141.5,58.5C 146.51,57.8299 151.176,56.1632 155.5,53.5C 156.425,52.6431 157.092,51.6431 157.5,50.5C 157.833,50.5 158.167,50.5 158.5,50.5C 160.527,50.6621 162.527,50.4955 164.5,50C 165.078,48.583 166.078,47.7496 167.5,47.5C 170.772,46.2422 174.106,45.0755 177.5,44C 178.667,43.5 179.5,42.6667 180,41.5C 180.251,39.567 180.751,37.7337 181.5,36C 179.333,34.5 177.167,33 175,31.5C 174.51,30.2068 174.343,28.8734 174.5,27.5C 195.503,27.3334 216.503,27.5 237.5,28C 237.699,30.3008 238.199,32.4674 239,34.5C 240.392,31.7216 240.892,28.7216 240.5,25.5 Z"/></g>
<g><path style="opacity:1" fill="#7de970" d="M 167.5,24.5 C 194.833,24.5 222.167,24.5 249.5,24.5C 249.5,24.8333 249.5,25.1667 249.5,25.5C 249.167,25.5 248.833,25.5 248.5,25.5C 245.833,25.5 243.167,25.5 240.5,25.5C 216.5,25.5 192.5,25.5 168.5,25.5C 168.216,27.4147 168.549,29.0813 169.5,30.5C 171.569,36.3202 170.569,41.3202 166.5,45.5C 166.205,38.4122 166.538,31.4122 167.5,24.5 Z"/></g>
<g><path style="opacity:0.882" fill="#93dd89" d="M 165.5,24.5 C 165.833,24.5 166.167,24.5 166.5,24.5C 166.833,24.5 167.167,24.5 167.5,24.5C 166.538,31.4122 166.205,38.4122 166.5,45.5C 166.5,46.1667 166.167,46.5 165.5,46.5C 165.5,39.1667 165.5,31.8333 165.5,24.5 Z"/></g>
<g><path style="opacity:1" fill="#75ec68" d="M 169.5,30.5 C 170.552,30.3505 171.552,30.5172 172.5,31C 174,33.1667 175.833,35 178,36.5C 178.863,38.7489 178.363,40.5822 176.5,42C 174.527,42.4955 172.527,42.6621 170.5,42.5C 170.279,44.6636 169.279,46.3303 167.5,47.5C 166.078,47.7496 165.078,48.583 164.5,50C 162.527,50.4955 160.527,50.6621 158.5,50.5C 158.833,49.8333 159.167,49.1667 159.5,48.5C 161.703,48.3964 163.703,47.7298 165.5,46.5C 166.167,46.5 166.5,46.1667 166.5,45.5C 170.569,41.3202 171.569,36.3202 169.5,30.5 Z"/></g>
<g><path style="opacity:0.177" fill="#d6fecf" d="M 164.5,24.5 C 164.833,24.5 165.167,24.5 165.5,24.5C 165.5,31.8333 165.5,39.1667 165.5,46.5C 163.703,47.7298 161.703,48.3964 159.5,48.5C 160.848,47.3994 162.348,46.3994 164,45.5C 164.5,38.5079 164.666,31.5079 164.5,24.5 Z"/></g>
<g><path style="opacity:0.18" fill="#c9f6c7" d="M 159.5,48.5 C 159.167,49.1667 158.833,49.8333 158.5,50.5C 158.167,50.5 157.833,50.5 157.5,50.5C 156.833,50.5 156.167,50.5 155.5,50.5C 156.514,49.3263 157.847,48.6596 159.5,48.5 Z"/></g>
<g><path style="opacity:0.569" fill="#92c98a" d="M 249.5,24.5 C 249.833,24.5 250.167,24.5 250.5,24.5C 250.21,33.0423 250.543,41.5423 251.5,50C 250.741,55.1283 250.241,60.295 250,65.5C 248.726,68.3911 247.226,71.0578 245.5,73.5C 245.9,69.5595 247.067,65.8928 249,62.5C 249.5,51.505 249.667,40.505 249.5,29.5C 249.5,28.1667 249.5,26.8333 249.5,25.5C 249.5,25.1667 249.5,24.8333 249.5,24.5 Z"/></g>
<g><path style="opacity:0.514" fill="#c2fbba" d="M 155.5,50.5 C 153.165,53.1648 150.165,54.4982 146.5,54.5C 149.088,52.4082 152.088,51.0749 155.5,50.5 Z"/></g>
<g><path style="opacity:1" fill="#62df53" d="M 155.5,50.5 C 156.167,50.5 156.833,50.5 157.5,50.5C 157.092,51.6431 156.425,52.6431 155.5,53.5C 151.176,56.1632 146.51,57.8299 141.5,58.5C 143.167,57.1667 144.833,55.8333 146.5,54.5C 150.165,54.4982 153.165,53.1648 155.5,50.5 Z"/></g>
<g><path style="opacity:1" fill="#40cf31" d="M 245.5,33.5 C 240.957,42.5427 237.123,51.876 234,61.5C 232.811,63.2331 231.644,64.8998 230.5,66.5C 232.974,58.2335 235.974,50.2335 239.5,42.5C 241.023,39.931 242.357,37.2643 243.5,34.5C 243.957,33.7025 244.624,33.3691 245.5,33.5 Z"/></g>
<g><path style="opacity:0.6" fill="#c0f8b6" d="M 146.5,54.5 C 144.833,55.8333 143.167,57.1667 141.5,58.5C 136.341,60.5804 131.341,62.9138 126.5,65.5C 125.167,65.5 123.833,65.5 122.5,65.5C 130.223,61.3064 138.223,57.6397 146.5,54.5 Z"/></g>
<g><path style="opacity:1" fill="#7dec72" d="M 204.5,61.5 C 205.492,61.3284 206.158,61.6618 206.5,62.5C 212.139,68.1332 218.139,73.4665 224.5,78.5C 224.5,90.1667 224.5,101.833 224.5,113.5C 219.638,110.046 214.638,106.546 209.5,103C 208.552,102.517 207.552,102.351 206.5,102.5C 206.771,100.62 206.104,99.287 204.5,98.5C 204.5,86.1667 204.5,73.8333 204.5,61.5 Z"/></g>
<g><path style="opacity:1" fill="#4dde3e" d="M 206.5,62.5 C 210.938,61.4251 212.938,63.0917 212.5,67.5C 214.677,67.5861 216.677,68.2528 218.5,69.5C 219.509,72.9869 221.842,74.3203 225.5,73.5C 225.615,70.0529 227.281,67.7196 230.5,66.5C 230.657,67.8734 230.49,69.2068 230,70.5C 228.395,73.1915 226.895,75.8582 225.5,78.5C 225.167,78.5 224.833,78.5 224.5,78.5C 218.139,73.4665 212.139,68.1332 206.5,62.5 Z"/></g>
<g><path style="opacity:1" fill="#218117" d="M 249.5,29.5 C 249.667,40.505 249.5,51.505 249,62.5C 247.067,65.8928 245.9,69.5595 245.5,73.5C 243.706,76.3663 242.039,79.3663 240.5,82.5C 239.222,82.7822 238.222,83.4489 237.5,84.5C 237.62,81.7952 236.62,81.1285 234.5,82.5C 230.643,81.0931 229.143,78.4264 230,74.5C 231.952,71.1086 233.285,67.442 234,63.5C 235.667,61.5 237.333,59.5 239,57.5C 239.333,56.1667 239.667,54.8333 240,53.5C 240.456,56.5716 240.456,59.5716 240,62.5C 242.466,62.5664 244.966,62.5664 247.5,62.5C 246.965,60.3392 246.132,58.3392 245,56.5C 243.517,58.9458 242.351,58.6124 241.5,55.5C 242.083,53.9984 242.916,52.6651 244,51.5C 244.333,51.8333 244.667,52.1667 245,52.5C 245.813,50.5643 246.313,48.5643 246.5,46.5C 245.5,46.5 244.5,46.5 243.5,46.5C 244.761,40.373 246.761,34.7063 249.5,29.5 Z"/></g>
<g><path style="opacity:1" fill="#299b1e" d="M 204.5,61.5 C 204.5,73.8333 204.5,86.1667 204.5,98.5C 203.749,99.5735 202.749,99.7401 201.5,99C 197.935,95.9233 194.269,93.0899 190.5,90.5C 194.715,92.0424 198.715,94.0424 202.5,96.5C 203.499,85.1862 203.832,73.8529 203.5,62.5C 202.5,62.5 201.5,62.5 200.5,62.5C 200.62,61.4138 201.287,60.7472 202.5,60.5C 203.416,60.5427 204.083,60.8761 204.5,61.5 Z"/></g>
<g><path style="opacity:1" fill="#25a319" d="M 194.5,64.5 C 188.727,69.3867 182.06,72.72 174.5,74.5C 173.193,75.865 173.193,77.1984 174.5,78.5C 170.851,77.51 170.518,75.6766 173.5,73C 180.738,70.7127 187.738,67.8793 194.5,64.5 Z"/></g>
<g><path style="opacity:1" fill="#1b8111" d="M 200.5,62.5 C 201.5,62.5 202.5,62.5 203.5,62.5C 203.832,73.8529 203.499,85.1862 202.5,96.5C 198.715,94.0424 194.715,92.0424 190.5,90.5C 184.77,86.975 179.437,82.975 174.5,78.5C 173.193,77.1984 173.193,75.865 174.5,74.5C 182.06,72.72 188.727,69.3867 194.5,64.5C 196.5,63.8333 198.5,63.1667 200.5,62.5 Z"/></g>
<g><path style="opacity:1" fill="#7eec73" d="M 122.5,65.5 C 123.833,65.5 125.167,65.5 126.5,65.5C 123.97,67.8659 121.304,70.0326 118.5,72C 120.738,74.7419 123.404,76.9086 126.5,78.5C 126.351,79.552 126.517,80.552 127,81.5C 130.967,83.9677 134.467,86.9677 137.5,90.5C 140.08,91.5488 142.746,92.2155 145.5,92.5C 153.879,97.9526 161.879,103.786 169.5,110C 171.134,110.494 172.801,110.66 174.5,110.5C 174.351,111.552 174.517,112.552 175,113.5C 185.166,120.711 195.333,127.877 205.5,135C 206.337,136.011 206.67,137.178 206.5,138.5C 208.308,138.491 209.975,138.991 211.5,140C 215.067,143.08 218.733,145.913 222.5,148.5C 225.251,151.498 227.917,154.665 230.5,158C 229.813,159.162 229.647,160.328 230,161.5C 231,160.167 232,160.167 233,161.5C 235,166.833 235,172.167 233,177.5C 230.676,181.124 227.676,184.124 224,186.5C 223.517,187.448 223.351,188.448 223.5,189.5C 223.167,189.5 222.833,189.5 222.5,189.5C 222.703,187.61 222.037,186.11 220.5,185C 215.613,182.726 210.946,180.226 206.5,177.5C 204.751,174.625 202.085,173.292 198.5,173.5C 192.172,169.841 185.838,166.175 179.5,162.5C 178.952,159.916 177.285,158.916 174.5,159.5C 174.5,159.167 174.5,158.833 174.5,158.5C 172.924,157.717 171.591,156.55 170.5,155C 169.207,154.51 167.873,154.343 166.5,154.5C 154.399,149.069 144.233,151.402 136,161.5C 135.138,163.087 134.471,164.754 134,166.5C 132.362,181.881 130.529,197.214 128.5,212.5C 126.055,228.276 124.388,244.276 123.5,260.5C 122.227,275.838 120.893,291.172 119.5,306.5C 117.315,306.296 115.315,305.63 113.5,304.5C 111.833,303.833 110.167,303.167 108.5,302.5C 108.027,301.094 107.027,300.427 105.5,300.5C 104.096,297.623 101.763,295.956 98.5,295.5C 96.0786,291.159 92.4119,288.325 87.5,287C 85.7988,285.161 84.1322,283.327 82.5,281.5C 80.7061,280.075 79.0395,278.408 77.5,276.5C 74.6754,275.745 72.0087,274.745 69.5,273.5C 68.1862,271.263 67.0195,268.929 66,266.5C 62.9701,266.618 59.8035,266.785 56.5,267C 56.2966,270.389 56.13,273.889 56,277.5C 54.3333,280.167 52.6667,280.167 51,277.5C 50.5065,275.866 50.3398,274.199 50.5,272.5C 49.1667,272.5 47.8333,272.5 46.5,272.5C 42.8936,265.998 38.7269,259.664 34,253.5C 32.4121,249.328 30.5788,245.328 28.5,241.5C 27.9084,238.873 27.5751,236.206 27.5,233.5C 26.1266,233.657 24.7932,233.49 23.5,233C 22.7807,230.383 21.4474,228.216 19.5,226.5C 18.6618,226.158 18.3284,225.492 18.5,224.5C 17.4551,220.741 16.1218,217.074 14.5,213.5C 15.8333,213.167 17.1667,212.833 18.5,212.5C 18.1961,213.15 17.8627,213.817 17.5,214.5C 19.5,214.833 21.5,215.167 23.5,215.5C 39.1586,214.304 54.8252,213.304 70.5,212.5C 70.5,214.167 70.5,215.833 70.5,217.5C 68.0675,222.788 66.7341,228.455 66.5,234.5C 63.9588,236.44 63.9588,238.607 66.5,241C 68.792,242.29 70.792,243.957 72.5,246C 77.6251,247.399 82.2918,249.565 86.5,252.5C 88.0541,255.729 90.3874,258.396 93.5,260.5C 95.3775,260.377 97.2109,260.377 99,260.5C 99.3333,259.833 99.6667,259.167 100,258.5C 100.435,245.797 101.268,233.13 102.5,220.5C 102.547,218.962 101.88,217.962 100.5,217.5C 101.313,210.516 101.98,203.516 102.5,196.5C 102.5,195.167 102.5,193.833 102.5,192.5C 101.167,192.5 99.8333,192.5 98.5,192.5C 94.8333,192.5 91.1667,192.5 87.5,192.5C 92.5,191.833 97.5,191.167 102.5,190.5C 104.402,187.663 105.069,184.329 104.5,180.5C 105.167,180.5 105.5,180.167 105.5,179.5C 106.268,178.737 106.768,177.737 107,176.5C 107.442,168.49 107.942,160.49 108.5,152.5C 109.332,143.857 109.999,135.191 110.5,126.5C 111.067,122.503 111.9,118.503 113,114.5C 114.637,99.5881 115.804,84.5881 116.5,69.5C 118.853,68.6597 120.853,67.3264 122.5,65.5 Z"/></g>
<g><path style="opacity:0.89" fill="#92e789" d="M 116.5,69.5 C 115.804,84.5881 114.637,99.5881 113,114.5C 111.9,118.503 111.067,122.503 110.5,126.5C 111.07,107.211 113.07,88.2114 116.5,69.5 Z"/></g>
<g><path style="opacity:1" fill="#208415" d="M 248.5,25.5 C 248.833,25.5 249.167,25.5 249.5,25.5C 249.5,26.8333 249.5,28.1667 249.5,29.5C 246.761,34.7063 244.761,40.373 243.5,46.5C 244.5,46.5 245.5,46.5 246.5,46.5C 246.313,48.5643 245.813,50.5643 245,52.5C 244.667,52.1667 244.333,51.8333 244,51.5C 242.916,52.6651 242.083,53.9984 241.5,55.5C 242.351,58.6124 243.517,58.9458 245,56.5C 246.132,58.3392 246.965,60.3392 247.5,62.5C 244.966,62.5664 242.466,62.5664 240,62.5C 240.456,59.5716 240.456,56.5716 240,53.5C 239.667,54.8333 239.333,56.1667 239,57.5C 237.333,59.5 235.667,61.5 234,63.5C 233.285,67.442 231.952,71.1086 230,74.5C 229.143,78.4264 230.643,81.0931 234.5,82.5C 236.62,81.1285 237.62,81.7952 237.5,84.5C 234.79,87.9639 233.456,91.9639 233.5,96.5C 232.85,98.4352 232.517,100.435 232.5,102.5C 229.753,105.723 227.753,109.389 226.5,113.5C 225.505,102.012 225.172,90.3453 225.5,78.5C 226.895,75.8582 228.395,73.1915 230,70.5C 230.49,69.2068 230.657,67.8734 230.5,66.5C 231.644,64.8998 232.811,63.2331 234,61.5C 237.123,51.876 240.957,42.5427 245.5,33.5C 247.02,31.1098 248.02,28.4432 248.5,25.5 Z"/></g>
<g><path style="opacity:0.055" fill="#bce3b9" d="M 245.5,73.5 C 245.162,75.854 244.662,78.1873 244,80.5C 241.289,83.9329 239.123,87.5995 237.5,91.5C 237.647,88.2084 238.647,85.2084 240.5,82.5C 242.039,79.3663 243.706,76.3663 245.5,73.5 Z"/></g>
<g><path style="opacity:1" fill="#75ef68" d="M 126.5,78.5 C 133.03,82.9283 139.363,87.595 145.5,92.5C 142.746,92.2155 140.08,91.5488 137.5,90.5C 134.467,86.9677 130.967,83.9677 127,81.5C 126.517,80.552 126.351,79.552 126.5,78.5 Z"/></g>
<g><path style="opacity:0.165" fill="#d9fad4" d="M 122.5,65.5 C 120.853,67.3264 118.853,68.6597 116.5,69.5C 113.07,88.2114 111.07,107.211 110.5,126.5C 108.988,134.469 107.654,142.469 106.5,150.5C 108.393,124.117 110.893,97.7832 114,71.5C 115.417,67.6918 118.251,65.6918 122.5,65.5 Z"/></g>
<g><path style="opacity:1" fill="#388532" d="M 240.5,82.5 C 238.647,85.2084 237.647,88.2084 237.5,91.5C 235.926,92.9842 234.593,94.6508 233.5,96.5C 233.456,91.9639 234.79,87.9639 237.5,84.5C 238.222,83.4489 239.222,82.7822 240.5,82.5 Z"/></g>
<g><path style="opacity:0.384" fill="#b7dfb2" d="M 237.5,91.5 C 236.07,95.3544 234.403,99.0211 232.5,102.5C 232.517,100.435 232.85,98.4352 233.5,96.5C 234.593,94.6508 235.926,92.9842 237.5,91.5 Z"/></g>
<g><path style="opacity:0.09" fill="#d2f0cd" d="M 232.5,102.5 C 231.948,106.941 230.281,110.941 227.5,114.5C 228.549,116.216 229.882,117.549 231.5,118.5C 228.167,118.5 226.5,116.833 226.5,113.5C 227.753,109.389 229.753,105.723 232.5,102.5 Z"/></g>
<g><path style="opacity:1" fill="#71d865" d="M 224.5,78.5 C 224.833,78.5 225.167,78.5 225.5,78.5C 225.172,90.3453 225.505,102.012 226.5,113.5C 226.5,116.833 228.167,118.5 231.5,118.5C 232.167,118.833 232.833,119.167 233.5,119.5C 233.5,120.167 233.5,120.833 233.5,121.5C 228.611,120.886 225.611,118.22 224.5,113.5C 224.5,101.833 224.5,90.1667 224.5,78.5 Z"/></g>
<g><path style="opacity:0.188" fill="#cafac2" d="M 233.5,119.5 C 247.538,129.845 261.538,140.178 275.5,150.5C 271.922,148.925 268.589,146.925 265.5,144.5C 262.5,142.5 259.5,140.5 256.5,138.5C 250.839,134.507 245.172,130.507 239.5,126.5C 237.54,124.844 235.54,123.177 233.5,121.5C 233.5,120.833 233.5,120.167 233.5,119.5 Z"/></g>
<g><path style="opacity:1" fill="#51df43" d="M 239.5,126.5 C 245.172,130.507 250.839,134.507 256.5,138.5C 254.5,138.5 252.5,138.5 250.5,138.5C 250.5,137.5 250.5,136.5 250.5,135.5C 248.533,135.261 246.699,135.594 245,136.5C 245.333,135.167 245.667,133.833 246,132.5C 243.423,131.729 240.923,130.729 238.5,129.5C 239.127,128.583 239.461,127.583 239.5,126.5 Z"/></g>
<g><path style="opacity:0.059" fill="#ddfeda" d="M 275.5,150.5 C 277.027,150.427 278.027,151.094 278.5,152.5C 277.833,152.5 277.167,152.5 276.5,152.5C 276.167,151.833 275.833,151.167 275.5,150.5 Z"/></g>
<g><path style="opacity:0.882" fill="#8dcd84" d="M 166.5,154.5 C 167.873,154.343 169.207,154.51 170.5,155C 171.591,156.55 172.924,157.717 174.5,158.5C 173.167,158.5 171.833,158.5 170.5,158.5C 169.833,158.5 169.167,158.5 168.5,158.5C 167.503,178.66 167.17,198.993 167.5,219.5C 167.5,219.833 167.5,220.167 167.5,220.5C 167.167,220.5 166.833,220.5 166.5,220.5C 166.5,198.5 166.5,176.5 166.5,154.5 Z"/></g>
<g><path style="opacity:0.067" fill="#c8fbbf" d="M 276.5,152.5 C 277.167,152.5 277.833,152.5 278.5,152.5C 281.533,154.016 284.2,156.016 286.5,158.5C 285.448,158.649 284.448,158.483 283.5,158C 281.46,155.664 279.127,153.831 276.5,152.5 Z"/></g>
<g><path style="opacity:0.875" fill="#a0e998" d="M 110.5,126.5 C 109.999,135.191 109.332,143.857 108.5,152.5C 107.833,154.5 107.167,156.5 106.5,158.5C 106.5,156.167 106.5,153.833 106.5,151.5C 106.5,151.167 106.5,150.833 106.5,150.5C 107.654,142.469 108.988,134.469 110.5,126.5 Z"/></g>
<g><path style="opacity:0.892" fill="#8be782" d="M 108.5,152.5 C 107.942,160.49 107.442,168.49 107,176.5C 106.768,177.737 106.268,178.737 105.5,179.5C 105.966,173.509 106.299,167.509 106.5,161.5C 106.5,160.5 106.5,159.5 106.5,158.5C 107.167,156.5 107.833,154.5 108.5,152.5 Z"/></g>
<g><path style="opacity:0.259" fill="#ddf8db" d="M 170.5,158.5 C 171.833,158.5 173.167,158.5 174.5,158.5C 174.5,158.833 174.5,159.167 174.5,159.5C 174.833,160.167 175.167,160.833 175.5,161.5C 173.326,161.25 171.659,160.25 170.5,158.5 Z"/></g>
<g><path style="opacity:1" fill="#a5ed9d" d="M 174.5,159.5 C 177.285,158.916 178.952,159.916 179.5,162.5C 178.833,162.5 178.167,162.5 177.5,162.5C 176.508,162.672 175.842,162.338 175.5,161.5C 175.167,160.833 174.833,160.167 174.5,159.5 Z"/></g>
<g><path style="opacity:1" fill="#56df46" d="M 265.5,144.5 C 268.589,146.925 271.922,148.925 275.5,150.5C 275.833,151.167 276.167,151.833 276.5,152.5C 279.127,153.831 281.46,155.664 283.5,158C 284.448,158.483 285.448,158.649 286.5,158.5C 288.194,160.861 290.194,162.861 292.5,164.5C 289.187,163.955 285.854,163.455 282.5,163C 279.242,155.75 273.742,150.916 266,148.5C 265.51,147.207 265.343,145.873 265.5,144.5 Z"/></g>
<g><path style="opacity:0.071" fill="#e7ffe6" d="M 177.5,162.5 C 178.167,162.5 178.833,162.5 179.5,162.5C 179.833,163.167 180.167,163.833 180.5,164.5C 178.973,164.573 177.973,163.906 177.5,162.5 Z"/></g>
<g><path style="opacity:0.11" fill="#e2ffde" d="M 106.5,151.5 C 106.5,153.833 106.5,156.167 106.5,158.5C 106.5,159.5 106.5,160.5 106.5,161.5C 105.833,163.833 105.167,166.167 104.5,168.5C 104.596,162.627 105.263,156.96 106.5,151.5 Z"/></g>
<g><path style="opacity:1" fill="#75ef68" d="M 222.5,148.5 C 236.751,155.473 240.251,166.14 233,180.5C 229.896,183.623 226.73,186.623 223.5,189.5C 223.351,188.448 223.517,187.448 224,186.5C 227.676,184.124 230.676,181.124 233,177.5C 235,172.167 235,166.833 233,161.5C 232,160.167 231,160.167 230,161.5C 229.647,160.328 229.813,159.162 230.5,158C 227.917,154.665 225.251,151.498 222.5,148.5 Z"/></g>
<g><path style="opacity:0.267" fill="#cef8ca" d="M 179.5,162.5 C 185.838,166.175 192.172,169.841 198.5,173.5C 198.5,173.833 198.5,174.167 198.5,174.5C 191.847,172.177 185.847,168.844 180.5,164.5C 180.167,163.833 179.833,163.167 179.5,162.5 Z"/></g>
<g><path style="opacity:0.868" fill="#aaeca2" d="M 106.5,161.5 C 106.299,167.509 105.966,173.509 105.5,179.5C 105.5,180.167 105.167,180.5 104.5,180.5C 104.5,176.5 104.5,172.5 104.5,168.5C 105.167,166.167 105.833,163.833 106.5,161.5 Z"/></g>
<g><path style="opacity:0.012" fill="#fcfffc" d="M 168.5,158.5 C 168.674,178.519 168.674,198.519 168.5,218.5C 168.5,219.167 168.167,219.5 167.5,219.5C 167.17,198.993 167.503,178.66 168.5,158.5 Z"/></g>
<g><path style="opacity:1" fill="#9ae792" d="M 198.5,174.5 C 198.5,174.167 198.5,173.833 198.5,173.5C 202.085,173.292 204.751,174.625 206.5,177.5C 205.5,177.5 204.5,177.5 203.5,177.5C 202.341,175.75 200.674,174.75 198.5,174.5 Z"/></g>
<g><path style="opacity:0.49" fill="#c9fac2" d="M 286.5,158.5 C 299.538,167.111 312.371,176.111 325,185.5C 325.78,187.387 325.613,189.054 324.5,190.5C 324.768,188.901 324.434,187.568 323.5,186.5C 313.736,178.444 303.403,171.11 292.5,164.5C 290.194,162.861 288.194,160.861 286.5,158.5 Z"/></g>
<g><path style="opacity:0.231" fill="#e2fce0" d="M 198.5,174.5 C 200.674,174.75 202.341,175.75 203.5,177.5C 201.067,177.727 199.401,176.727 198.5,174.5 Z"/></g>
<g><path style="opacity:0.159" fill="#defad5" d="M 104.5,168.5 C 104.5,172.5 104.5,176.5 104.5,180.5C 105.069,184.329 104.402,187.663 102.5,190.5C 101.167,190.5 99.8333,190.5 98.5,190.5C 99.5676,189.566 100.901,189.232 102.5,189.5C 102.681,182.309 103.348,175.309 104.5,168.5 Z"/></g>
<g><path style="opacity:0.729" fill="#c9f7c3" d="M 203.5,177.5 C 204.5,177.5 205.5,177.5 206.5,177.5C 210.946,180.226 215.613,182.726 220.5,185C 222.037,186.11 222.703,187.61 222.5,189.5C 220.396,190.912 218.063,191.912 215.5,192.5C 217.123,191.221 218.79,189.887 220.5,188.5C 220.333,188.167 220.167,187.833 220,187.5C 214.353,184.267 208.853,180.933 203.5,177.5 Z"/></g>
<g><path style="opacity:0.204" fill="#d0fbc9" d="M 98.5,190.5 C 99.8333,190.5 101.167,190.5 102.5,190.5C 97.5,191.167 92.5,191.833 87.5,192.5C 85.8333,192.5 84.1667,192.5 82.5,192.5C 80.5,192.5 78.5,192.5 76.5,192.5C 83.6197,191.072 90.953,190.406 98.5,190.5 Z"/></g>
<g><path style="opacity:0.914" fill="#7de371" d="M 74.5,192.5 C 75.1667,192.5 75.8333,192.5 76.5,192.5C 78.5,192.5 80.5,192.5 82.5,192.5C 79.8774,194.265 76.8774,194.932 73.5,194.5C 72.1667,194.5 70.8333,194.5 69.5,194.5C 71.1667,193.833 72.8333,193.167 74.5,192.5 Z"/></g>
<g><path style="opacity:0.439" fill="#8fc68a" d="M 323.5,186.5 C 324.434,187.568 324.768,188.901 324.5,190.5C 324.5,192.833 324.5,195.167 324.5,197.5C 323.833,198.5 323.167,199.5 322.5,200.5C 323.127,195.859 323.46,191.193 323.5,186.5 Z"/></g>
<g><path style="opacity:0.224" fill="#ccfcc5" d="M 74.5,192.5 C 72.8333,193.167 71.1667,193.833 69.5,194.5C 59.1895,194.205 49.1895,195.538 39.5,198.5C 43.7837,194.985 48.617,193.652 54,194.5C 60.779,193.339 67.6124,192.672 74.5,192.5 Z"/></g>
<g><path style="opacity:1" fill="#1d8113" d="M 166.5,154.5 C 166.5,176.5 166.5,198.5 166.5,220.5C 166.266,227.072 168.266,232.739 172.5,237.5C 178.815,245.439 186.815,247.606 196.5,244C 200.056,242.392 203.389,240.559 206.5,238.5C 210.466,237.956 214.133,236.623 217.5,234.5C 235.074,226.726 252.574,218.726 270,210.5C 279.218,207.158 288.051,203.158 296.5,198.5C 305.929,195.282 314.929,191.282 323.5,186.5C 323.46,191.193 323.127,195.859 322.5,200.5C 322.5,202.167 322.5,203.833 322.5,205.5C 321.263,210.96 320.596,216.627 320.5,222.5C 320.5,223.833 320.5,225.167 320.5,226.5C 319.289,235.661 318.289,244.994 317.5,254.5C 317.511,256.045 317.844,257.378 318.5,258.5C 319.5,258.5 320.5,258.5 321.5,258.5C 323.696,258.41 325.863,258.077 328,257.5C 329.899,257.898 331.399,258.898 332.5,260.5C 331.349,261.731 330.183,261.731 329,260.5C 329.281,263.057 329.114,265.724 328.5,268.5C 326.968,271.766 325.634,275.099 324.5,278.5C 314.797,292.876 305.797,307.876 297.5,323.5C 296.675,324.386 295.675,324.719 294.5,324.5C 294.737,323.209 294.404,322.209 293.5,321.5C 283.547,306.882 273.214,292.549 262.5,278.5C 263.737,276.903 265.404,275.737 267.5,275C 274.32,273.907 280.653,271.74 286.5,268.5C 287.5,268.5 288.5,268.5 289.5,268.5C 289.5,263.833 289.5,259.167 289.5,254.5C 290.806,249.384 291.473,244.051 291.5,238.5C 291.5,236.167 291.5,233.833 291.5,231.5C 278.729,236.058 266.396,241.391 254.5,247.5C 252.716,247.893 251.05,248.559 249.5,249.5C 243.161,251.331 237.161,253.831 231.5,257C 230.748,257.671 230.414,258.504 230.5,259.5C 228.302,259.12 226.635,259.787 225.5,261.5C 222.654,261.552 220.32,262.552 218.5,264.5C 218.158,265.338 217.492,265.672 216.5,265.5C 213.509,265.166 211.176,266.166 209.5,268.5C 199.461,272.02 189.795,276.353 180.5,281.5C 178.62,281.229 177.287,281.896 176.5,283.5C 176.158,284.338 175.492,284.672 174.5,284.5C 166.602,286.786 159.268,290.119 152.5,294.5C 151.486,295.674 150.153,296.34 148.5,296.5C 147.5,296.5 146.5,296.5 145.5,296.5C 139.181,299.066 132.515,300.733 125.5,301.5C 124.069,303.938 122.069,305.604 119.5,306.5C 120.893,291.172 122.227,275.838 123.5,260.5C 125.968,244.73 127.635,228.73 128.5,212.5C 130.529,197.214 132.362,181.881 134,166.5C 134.471,164.754 135.138,163.087 136,161.5C 144.233,151.402 154.399,149.069 166.5,154.5 Z"/></g>
<g><path style="opacity:0.816" fill="#adf1a3" d="M 215.5,192.5 C 212.157,196.646 207.824,199.479 202.5,201C 201.619,201.708 200.953,202.542 200.5,203.5C 197.381,204.317 194.381,205.317 191.5,206.5C 199.164,201.332 207.164,196.665 215.5,192.5 Z"/></g>
<g><path style="opacity:1" fill="#43e332" d="M 82.5,192.5 C 84.1667,192.5 85.8333,192.5 87.5,192.5C 91.1667,192.5 94.8333,192.5 98.5,192.5C 88.994,197.775 79.994,203.775 71.5,210.5C 69.9245,209.925 68.2578,209.592 66.5,209.5C 50.8452,211.967 35.1786,213.3 19.5,213.5C 19.8627,212.817 20.1961,212.15 20.5,211.5C 24.0562,209.671 27.3895,207.671 30.5,205.5C 31.5137,204.326 32.847,203.66 34.5,203.5C 38.5977,201.952 42.5977,200.119 46.5,198C 51.8178,197.978 57.1511,198.145 62.5,198.5C 62.5,197.5 62.5,196.5 62.5,195.5C 66.3714,195.815 70.0381,195.482 73.5,194.5C 76.8774,194.932 79.8774,194.265 82.5,192.5 Z"/></g>
<g><path style="opacity:1" fill="#57de47" d="M 69.5,194.5 C 70.8333,194.5 72.1667,194.5 73.5,194.5C 70.0381,195.482 66.3714,195.815 62.5,195.5C 62.5,196.5 62.5,197.5 62.5,198.5C 57.1511,198.145 51.8178,197.978 46.5,198C 42.5977,200.119 38.5977,201.952 34.5,203.5C 35.973,201.605 37.6397,199.939 39.5,198.5C 49.1895,195.538 59.1895,194.205 69.5,194.5 Z"/></g>
<g><path style="opacity:1" fill="#1e9313" d="M 98.5,192.5 C 99.8333,192.5 101.167,192.5 102.5,192.5C 102.5,193.833 102.5,195.167 102.5,196.5C 98.5955,194.452 96.2622,195.452 95.5,199.5C 92.1012,200.016 88.7679,200.85 85.5,202C 84.6634,203.011 84.33,204.178 84.5,205.5C 80.855,204.68 78.5217,206.013 77.5,209.5C 75.9547,210.452 74.288,210.785 72.5,210.5C 73.0102,213.388 72.3435,215.721 70.5,217.5C 70.5,215.833 70.5,214.167 70.5,212.5C 71.3382,212.158 71.6716,211.492 71.5,210.5C 79.994,203.775 88.994,197.775 98.5,192.5 Z"/></g>
<g><path style="opacity:0.153" fill="#cafac4" d="M 39.5,198.5 C 37.6397,199.939 35.973,201.605 34.5,203.5C 32.847,203.66 31.5137,204.326 30.5,205.5C 28.2543,206.455 25.921,207.122 23.5,207.5C 28.5016,203.997 33.835,200.997 39.5,198.5 Z"/></g>
<g><path style="opacity:0.416" fill="#bce0b7" d="M 324.5,197.5 C 324.611,198.117 324.944,198.617 325.5,199C 324.014,203.134 323.014,207.301 322.5,211.5C 322.5,209.5 322.5,207.5 322.5,205.5C 322.5,203.833 322.5,202.167 322.5,200.5C 323.167,199.5 323.833,198.5 324.5,197.5 Z"/></g>
<g><path style="opacity:1" fill="#1d8213" d="M 102.5,196.5 C 101.98,203.516 101.313,210.516 100.5,217.5C 97.911,217.461 95.911,218.461 94.5,220.5C 90.3447,221.742 86.678,223.742 83.5,226.5C 77.9946,228.749 72.9946,231.749 68.5,235.5C 67.5084,235.672 66.8417,235.338 66.5,234.5C 66.7341,228.455 68.0675,222.788 70.5,217.5C 72.3435,215.721 73.0102,213.388 72.5,210.5C 74.288,210.785 75.9547,210.452 77.5,209.5C 78.5217,206.013 80.855,204.68 84.5,205.5C 84.33,204.178 84.6634,203.011 85.5,202C 88.7679,200.85 92.1012,200.016 95.5,199.5C 96.2622,195.452 98.5955,194.452 102.5,196.5 Z"/></g>
<g><path style="opacity:1" fill="#6de05f" d="M 30.5,205.5 C 27.3895,207.671 24.0562,209.671 20.5,211.5C 21.5,210.167 22.5,208.833 23.5,207.5C 25.921,207.122 28.2543,206.455 30.5,205.5 Z"/></g>
<g><path style="opacity:0.125" fill="#cdfac6" d="M 191.5,206.5 C 190.713,208.104 189.38,208.771 187.5,208.5C 188.514,207.326 189.847,206.66 191.5,206.5 Z"/></g>
<g><path style="opacity:1" fill="#5ddf4e" d="M 200.5,203.5 C 197.465,205.017 194.799,207.183 192.5,210C 190.527,210.495 188.527,210.662 186.5,210.5C 186.833,209.833 187.167,209.167 187.5,208.5C 189.38,208.771 190.713,208.104 191.5,206.5C 194.381,205.317 197.381,204.317 200.5,203.5 Z"/></g>
<g><path style="opacity:0.239" fill="#d8fdd0" d="M 187.5,208.5 C 187.167,209.167 186.833,209.833 186.5,210.5C 185.833,210.5 185.167,210.5 184.5,210.5C 184.973,209.094 185.973,208.427 187.5,208.5 Z"/></g>
<g><path style="opacity:1" fill="#73ee66" d="M 71.5,210.5 C 71.6716,211.492 71.3382,212.158 70.5,212.5C 54.8252,213.304 39.1586,214.304 23.5,215.5C 21.5,215.167 19.5,214.833 17.5,214.5C 17.8627,213.817 18.1961,213.15 18.5,212.5C 18.8417,211.662 19.5084,211.328 20.5,211.5C 20.1961,212.15 19.8627,212.817 19.5,213.5C 35.1786,213.3 50.8452,211.967 66.5,209.5C 68.2578,209.592 69.9245,209.925 71.5,210.5 Z"/></g>
<g><path style="opacity:0.11" fill="#dbfed5" d="M 184.5,210.5 C 183.713,212.104 182.38,212.771 180.5,212.5C 181.514,211.326 182.847,210.66 184.5,210.5 Z"/></g>
<g><path style="opacity:0.224" fill="#d7ffce" d="M 180.5,212.5 C 180.027,213.906 179.027,214.573 177.5,214.5C 177.973,213.094 178.973,212.427 180.5,212.5 Z"/></g>
<g><path style="opacity:1" fill="#40d230" d="M 296.5,198.5 C 288.051,203.158 279.218,207.158 270,210.5C 252.574,218.726 235.074,226.726 217.5,234.5C 217.36,232.876 218.027,231.71 219.5,231C 224.933,229.953 229.933,227.786 234.5,224.5C 250.524,218.653 265.858,211.486 280.5,203C 285.546,200.653 290.88,199.153 296.5,198.5 Z"/></g>
<g><path style="opacity:0.271" fill="#cafac1" d="M 177.5,214.5 C 174.506,217 171.173,219 167.5,220.5C 167.5,220.167 167.5,219.833 167.5,219.5C 168.167,219.5 168.5,219.167 168.5,218.5C 171.352,216.909 174.352,215.576 177.5,214.5 Z"/></g>
<g><path style="opacity:0.996" fill="#93e68b" d="M 14.5,213.5 C 16.1218,217.074 17.4551,220.741 18.5,224.5C 16.6863,222.236 14.853,219.903 13,217.5C 12.2274,215.648 12.7274,214.314 14.5,213.5 Z"/></g>
<g><path style="opacity:0.667" fill="#76b170" d="M 322.5,205.5 C 322.5,207.5 322.5,209.5 322.5,211.5C 322.5,213.833 322.5,216.167 322.5,218.5C 321.833,219.833 321.167,221.167 320.5,222.5C 320.596,216.627 321.263,210.96 322.5,205.5 Z"/></g>
<g><path style="opacity:0.267" fill="#cffaca" d="M 23.5,207.5 C 22.5,208.833 21.5,210.167 20.5,211.5C 19.5084,211.328 18.8417,211.662 18.5,212.5C 17.1667,212.833 15.8333,213.167 14.5,213.5C 12.7274,214.314 12.2274,215.648 13,217.5C 14.853,219.903 16.6863,222.236 18.5,224.5C 18.3284,225.492 18.6618,226.158 19.5,226.5C 20.4552,228.746 21.1218,231.079 21.5,233.5C 17.8019,227.945 14.4686,222.111 11.5,216C 11.5852,214.893 11.9186,213.893 12.5,213C 16.2198,211.14 19.8864,209.307 23.5,207.5 Z"/></g>
<g><path style="opacity:1" fill="#43e232" d="M 100.5,217.5 C 99.8721,229.877 98.7054,242.21 97,254.5C 96.6924,255.308 96.1924,255.975 95.5,256.5C 92.4862,255.141 89.4862,253.808 86.5,252.5C 84.6813,249.345 82.0146,247.345 78.5,246.5C 78.67,245.178 78.3366,244.011 77.5,243C 73.1509,242.332 69.4842,240.332 66.5,237C 67.4158,236.722 68.0825,236.222 68.5,235.5C 72.9946,231.749 77.9946,228.749 83.5,226.5C 85.8568,226.663 88.1902,226.497 90.5,226C 91.7213,223.966 93.0546,222.133 94.5,220.5C 95.911,218.461 97.911,217.461 100.5,217.5 Z"/></g>
<g><path style="opacity:1" fill="#40d031" d="M 94.5,220.5 C 93.0546,222.133 91.7213,223.966 90.5,226C 88.1902,226.497 85.8568,226.663 83.5,226.5C 86.678,223.742 90.3447,221.742 94.5,220.5 Z"/></g>
<g><path style="opacity:0.341" fill="#bedcbb" d="M 322.5,218.5 C 322.763,222.6 322.43,226.6 321.5,230.5C 321.167,230.5 320.833,230.5 320.5,230.5C 320.5,229.167 320.5,227.833 320.5,226.5C 320.5,225.167 320.5,223.833 320.5,222.5C 321.167,221.167 321.833,219.833 322.5,218.5 Z"/></g>
<g><path style="opacity:1" fill="#4cd63e" d="M 184.5,210.5 C 185.167,210.5 185.833,210.5 186.5,210.5C 185.162,212.67 183.328,214.336 181,215.5C 180.517,216.448 180.351,217.448 180.5,218.5C 175.874,217.7 172.04,219.034 169,222.5C 168.333,224.5 168.333,226.5 169,228.5C 170.915,231.235 172.082,234.235 172.5,237.5C 168.266,232.739 166.266,227.072 166.5,220.5C 166.833,220.5 167.167,220.5 167.5,220.5C 171.173,219 174.506,217 177.5,214.5C 179.027,214.573 180.027,213.906 180.5,212.5C 182.38,212.771 183.713,212.104 184.5,210.5 Z"/></g>
<g><path style="opacity:1" fill="#92e887" d="M 19.5,226.5 C 21.4474,228.216 22.7807,230.383 23.5,233C 24.7932,233.49 26.1266,233.657 27.5,233.5C 27.5751,236.206 27.9084,238.873 28.5,241.5C 26.1667,238.833 23.8333,236.167 21.5,233.5C 21.1218,231.079 20.4552,228.746 19.5,226.5 Z"/></g>
<g><path style="opacity:1" fill="#63ce57" d="M 128.5,212.5 C 127.635,228.73 125.968,244.73 123.5,260.5C 124.388,244.276 126.055,228.276 128.5,212.5 Z"/></g>
<g><path style="opacity:1" fill="#7bea6f" d="M 291.5,238.5 C 289.822,243.568 289.156,248.902 289.5,254.5C 289.5,259.167 289.5,263.833 289.5,268.5C 288.5,268.5 287.5,268.5 286.5,268.5C 284.418,266.12 281.751,264.454 278.5,263.5C 271.003,258.863 263.336,254.363 255.5,250C 254.748,249.329 254.414,248.496 254.5,247.5C 266.396,241.391 278.729,236.058 291.5,231.5C 291.5,233.833 291.5,236.167 291.5,238.5 Z"/></g>
<g><path style="opacity:1" fill="#72ec65" d="M 66.5,234.5 C 66.8417,235.338 67.5084,235.672 68.5,235.5C 68.0825,236.222 67.4158,236.722 66.5,237C 69.4842,240.332 73.1509,242.332 77.5,243C 78.3366,244.011 78.67,245.178 78.5,246.5C 82.0146,247.345 84.6813,249.345 86.5,252.5C 82.2918,249.565 77.6251,247.399 72.5,246C 70.792,243.957 68.792,242.29 66.5,241C 63.9588,238.607 63.9588,236.44 66.5,234.5 Z"/></g>
<g><path style="opacity:1" fill="#74ef67" d="M 100.5,217.5 C 101.88,217.962 102.547,218.962 102.5,220.5C 101.268,233.13 100.435,245.797 100,258.5C 99.6667,259.167 99.3333,259.833 99,260.5C 97.2109,260.377 95.3775,260.377 93.5,260.5C 90.3874,258.396 88.0541,255.729 86.5,252.5C 89.4862,253.808 92.4862,255.141 95.5,256.5C 96.1924,255.975 96.6924,255.308 97,254.5C 98.7054,242.21 99.8721,229.877 100.5,217.5 Z"/></g>
<g><path style="opacity:1" fill="#44d634" d="M 172.5,237.5 C 178.249,240.582 184.415,242.582 191,243.5C 195.99,241.337 201.157,239.67 206.5,238.5C 203.389,240.559 200.056,242.392 196.5,244C 186.815,247.606 178.815,245.439 172.5,237.5 Z"/></g>
<g><path style="opacity:0.573" fill="#8ec387" d="M 320.5,226.5 C 320.5,227.833 320.5,229.167 320.5,230.5C 320.167,237.167 319.833,243.833 319.5,250.5C 318.781,252.764 318.448,255.097 318.5,257.5C 318.5,257.833 318.5,258.167 318.5,258.5C 317.844,257.378 317.511,256.045 317.5,254.5C 318.289,244.994 319.289,235.661 320.5,226.5 Z"/></g>
<g><path style="opacity:0.019" fill="#f5fcf4" d="M 320.5,230.5 C 320.833,230.5 321.167,230.5 321.5,230.5C 321.603,237.386 320.936,244.053 319.5,250.5C 319.833,243.833 320.167,237.167 320.5,230.5 Z"/></g>
<g><path style="opacity:1" fill="#42e330" d="M 254.5,247.5 C 254.414,248.496 254.748,249.329 255.5,250C 263.336,254.363 271.003,258.863 278.5,263.5C 279.446,265.132 280.446,266.799 281.5,268.5C 276.062,270.385 270.728,272.552 265.5,275C 262.14,274.515 258.806,273.682 255.5,272.5C 255.5,271.5 255.5,270.5 255.5,269.5C 254.127,269.657 252.793,269.49 251.5,269C 247.891,265.705 243.891,263.205 239.5,261.5C 237.604,260.534 235.604,260.201 233.5,260.5C 238.767,256.856 244.101,253.189 249.5,249.5C 251.05,248.559 252.716,247.893 254.5,247.5 Z"/></g>
<g><path style="opacity:1" fill="#4db742" d="M 291.5,238.5 C 291.473,244.051 290.806,249.384 289.5,254.5C 289.156,248.902 289.822,243.568 291.5,238.5 Z"/></g>
<g><path style="opacity:1" fill="#46d036" d="M 249.5,249.5 C 244.101,253.189 238.767,256.856 233.5,260.5C 234.11,261.391 234.443,262.391 234.5,263.5C 232.833,262.5 231.5,261.167 230.5,259.5C 230.414,258.504 230.748,257.671 231.5,257C 237.161,253.831 243.161,251.331 249.5,249.5 Z"/></g>
<g><path style="opacity:0.227" fill="#c5e5c0" d="M 333.5,262.5 C 333.762,259.309 335.095,256.642 337.5,254.5C 331.87,254.372 326.536,255.705 321.5,258.5C 320.5,258.5 319.5,258.5 318.5,258.5C 318.5,258.167 318.5,257.833 318.5,257.5C 325.345,255.038 332.345,253.038 339.5,251.5C 339.451,254.099 338.451,256.266 336.5,258C 336.791,259.958 335.791,261.458 333.5,262.5 Z"/></g>
<g><path style="opacity:0.345" fill="#beefb6" d="M 230.5,259.5 C 231.5,261.167 232.833,262.5 234.5,263.5C 234.285,265.179 234.952,266.179 236.5,266.5C 236.5,267.167 236.5,267.833 236.5,268.5C 235.833,268.167 235.167,267.833 234.5,267.5C 232.315,265.804 230.648,263.638 229.5,261C 228.181,260.805 226.847,260.972 225.5,261.5C 226.635,259.787 228.302,259.12 230.5,259.5 Z"/></g>
<g><path style="opacity:1" fill="#318428" d="M 333.5,262.5 C 331.833,264.5 330.167,266.5 328.5,268.5C 329.114,265.724 329.281,263.057 329,260.5C 330.183,261.731 331.349,261.731 332.5,260.5C 331.399,258.898 329.899,257.898 328,257.5C 325.863,258.077 323.696,258.41 321.5,258.5C 326.536,255.705 331.87,254.372 337.5,254.5C 335.095,256.642 333.762,259.309 333.5,262.5 Z"/></g>
<g><path style="opacity:0.125" fill="#bbe3b8" d="M 225.5,261.5 C 223.491,263.065 221.157,264.065 218.5,264.5C 220.32,262.552 222.654,261.552 225.5,261.5 Z"/></g>
<g><path style="opacity:1" fill="#4ee03f" d="M 233.5,260.5 C 235.604,260.201 237.604,260.534 239.5,261.5C 243.891,263.205 247.891,265.705 251.5,269C 252.793,269.49 254.127,269.657 255.5,269.5C 255.5,270.5 255.5,271.5 255.5,272.5C 258.806,273.682 262.14,274.515 265.5,275C 270.728,272.552 276.062,270.385 281.5,268.5C 280.446,266.799 279.446,265.132 278.5,263.5C 281.751,264.454 284.418,266.12 286.5,268.5C 280.653,271.74 274.32,273.907 267.5,275C 265.404,275.737 263.737,276.903 262.5,278.5C 257.492,277.137 253.159,274.637 249.5,271C 244.704,267.935 239.704,265.435 234.5,263.5C 234.443,262.391 234.11,261.391 233.5,260.5 Z"/></g>
<g><path style="opacity:0.561" fill="#9dd098" d="M 216.5,265.5 C 214.351,266.736 212.018,267.736 209.5,268.5C 211.176,266.166 213.509,265.166 216.5,265.5 Z"/></g>
<g><path style="opacity:0.451" fill="#d1f9cc" d="M 21.5,233.5 C 23.8333,236.167 26.1667,238.833 28.5,241.5C 30.5788,245.328 32.4121,249.328 34,253.5C 38.7269,259.664 42.8936,265.998 46.5,272.5C 48.1185,276.069 49.4519,279.736 50.5,283.5C 40.3317,267.169 30.665,250.502 21.5,233.5 Z"/></g>
<g><path style="opacity:0.098" fill="#defcd9" d="M 64.5,271.5 C 62.9826,271.489 61.8159,270.823 61,269.5C 58.5673,275.902 57.0673,282.569 56.5,289.5C 52.3029,289.806 50.3029,287.806 50.5,283.5C 51.3745,285.69 53.0411,286.69 55.5,286.5C 56.7552,280.555 57.7552,274.555 58.5,268.5C 61.3126,268.025 63.3126,269.025 64.5,271.5 Z"/></g>
<g><path style="opacity:0.384" fill="#aed8a9" d="M 333.5,262.5 C 331.003,268.165 328.003,273.498 324.5,278.5C 325.634,275.099 326.968,271.766 328.5,268.5C 330.167,266.5 331.833,264.5 333.5,262.5 Z"/></g>
<g><path style="opacity:1" fill="#8be681" d="M 236.5,266.5 C 238.142,268.081 240.142,268.747 242.5,268.5C 242.961,272.212 243.627,275.879 244.5,279.5C 241.865,275.857 239.199,272.19 236.5,268.5C 236.5,267.833 236.5,267.167 236.5,266.5 Z"/></g>
<g><path style="opacity:0.412" fill="#afdbac" d="M 209.5,268.5 C 200.287,273.602 190.62,277.935 180.5,281.5C 189.795,276.353 199.461,272.02 209.5,268.5 Z"/></g>
<g><path style="opacity:0.271" fill="#ddfdd9" d="M 67.5,273.5 C 68.1667,273.5 68.8333,273.5 69.5,273.5C 70.1667,274.5 70.8333,275.5 71.5,276.5C 69.5956,276.262 68.2623,275.262 67.5,273.5 Z"/></g>
<g><path style="opacity:1" fill="#91e987" d="M 69.5,273.5 C 72.0087,274.745 74.6754,275.745 77.5,276.5C 79.0395,278.408 80.7061,280.075 82.5,281.5C 81.1667,281.5 79.8333,281.5 78.5,281.5C 77.7377,279.738 76.4044,278.738 74.5,278.5C 74.0269,277.094 73.0269,276.427 71.5,276.5C 70.8333,275.5 70.1667,274.5 69.5,273.5 Z"/></g>
<g><path style="opacity:0.353" fill="#dcfcd9" d="M 71.5,276.5 C 73.0269,276.427 74.0269,277.094 74.5,278.5C 72.9731,278.573 71.9731,277.906 71.5,276.5 Z"/></g>
<g><path style="opacity:0.455" fill="#dbfdd7" d="M 74.5,278.5 C 76.4044,278.738 77.7377,279.738 78.5,281.5C 76.5956,281.262 75.2623,280.262 74.5,278.5 Z"/></g>
<g><path style="opacity:1" fill="#8fe884" d="M 69.5,273.5 C 68.8333,273.5 68.1667,273.5 67.5,273.5C 67.0269,272.094 66.0269,271.427 64.5,271.5C 63.3126,269.025 61.3126,268.025 58.5,268.5C 57.7552,274.555 56.7552,280.555 55.5,286.5C 53.0411,286.69 51.3745,285.69 50.5,283.5C 49.4519,279.736 48.1185,276.069 46.5,272.5C 47.8333,272.5 49.1667,272.5 50.5,272.5C 50.3398,274.199 50.5065,275.866 51,277.5C 52.6667,280.167 54.3333,280.167 56,277.5C 56.13,273.889 56.2966,270.389 56.5,267C 59.8035,266.785 62.9701,266.618 66,266.5C 67.0195,268.929 68.1862,271.263 69.5,273.5 Z"/></g>
<g><path style="opacity:0.2" fill="#e0feda" d="M 64.5,271.5 C 66.0269,271.427 67.0269,272.094 67.5,273.5C 65.9731,273.573 64.9731,272.906 64.5,271.5 Z"/></g>
<g><path style="opacity:0.89" fill="#c4f3be" d="M 78.5,281.5 C 79.8333,281.5 81.1667,281.5 82.5,281.5C 84.1322,283.327 85.7988,285.161 87.5,287C 92.4119,288.325 96.0786,291.159 98.5,295.5C 91.1253,291.815 84.4586,287.149 78.5,281.5 Z"/></g>
<g><path style="opacity:0.094" fill="#b5e5ad" d="M 180.5,281.5 C 179.486,282.674 178.153,283.34 176.5,283.5C 177.287,281.896 178.62,281.229 180.5,281.5 Z"/></g>
<g><path style="opacity:0.235" fill="#d7fad3" d="M 234.5,267.5 C 235.167,267.833 235.833,268.167 236.5,268.5C 239.199,272.19 241.865,275.857 244.5,279.5C 246.047,282.56 248.214,285.226 251,287.5C 252.445,290.09 253.612,292.757 254.5,295.5C 247.345,286.527 240.679,277.194 234.5,267.5 Z"/></g>
<g><path style="opacity:0.471" fill="#b8e1b5" d="M 174.5,284.5 C 168.059,288.698 160.726,292.031 152.5,294.5C 159.268,290.119 166.602,286.786 174.5,284.5 Z"/></g>
<g><path style="opacity:1" fill="#7de972" d="M 234.5,263.5 C 239.704,265.435 244.704,267.935 249.5,271C 253.159,274.637 257.492,277.137 262.5,278.5C 273.214,292.549 283.547,306.882 293.5,321.5C 291.228,320.681 288.894,320.015 286.5,319.5C 282.934,317.375 279.268,315.209 275.5,313C 274.207,312.51 272.873,312.343 271.5,312.5C 268.071,308.512 264.238,304.846 260,301.5C 258.821,298.74 256.988,296.74 254.5,295.5C 253.612,292.757 252.445,290.09 251,287.5C 248.214,285.226 246.047,282.56 244.5,279.5C 243.627,275.879 242.961,272.212 242.5,268.5C 240.142,268.747 238.142,268.081 236.5,266.5C 234.952,266.179 234.285,265.179 234.5,263.5 Z"/></g>
<g><path style="opacity:0.263" fill="#d7f8d0" d="M 98.5,295.5 C 101.763,295.956 104.096,297.623 105.5,300.5C 102.63,299.567 100.296,297.9 98.5,295.5 Z"/></g>
<g><path style="opacity:0.098" fill="#d8f5d3" d="M 145.5,296.5 C 146.5,296.5 147.5,296.5 148.5,296.5C 147.22,297.931 145.553,298.598 143.5,298.5C 144.167,297.833 144.833,297.167 145.5,296.5 Z"/></g>
<g><path style="opacity:0.067" fill="#c6eac5" d="M 143.5,298.5 C 140.943,300.607 137.943,301.941 134.5,302.5C 137.082,300.258 140.082,298.924 143.5,298.5 Z"/></g>
<g><path style="opacity:0.404" fill="#dafdcf" d="M 105.5,300.5 C 107.027,300.427 108.027,301.094 108.5,302.5C 106.973,302.573 105.973,301.906 105.5,300.5 Z"/></g>
<g><path style="opacity:1" fill="#39882f" d="M 145.5,296.5 C 144.833,297.167 144.167,297.833 143.5,298.5C 140.082,298.924 137.082,300.258 134.5,302.5C 134.158,303.338 133.492,303.672 132.5,303.5C 128.53,303.984 124.864,305.317 121.5,307.5C 120.508,307.672 119.842,307.338 119.5,306.5C 122.069,305.604 124.069,303.938 125.5,301.5C 132.515,300.733 139.181,299.066 145.5,296.5 Z"/></g>
<g><path style="opacity:0.961" fill="#a3e29c" d="M 113.5,304.5 C 115.315,305.63 117.315,306.296 119.5,306.5C 119.842,307.338 120.508,307.672 121.5,307.5C 121.5,307.833 121.5,308.167 121.5,308.5C 120.903,309.139 120.07,309.472 119,309.5C 117.301,309.613 116.134,308.947 115.5,307.5C 114.833,306.5 114.167,305.5 113.5,304.5 Z"/></g>
<g><path style="opacity:0.502" fill="#b8dfb4" d="M 132.5,303.5 C 129.26,305.951 125.593,307.618 121.5,308.5C 121.5,308.167 121.5,307.833 121.5,307.5C 124.864,305.317 128.53,303.984 132.5,303.5 Z"/></g>
<g><path style="opacity:0.059" fill="#ddfcd6" d="M 108.5,302.5 C 110.167,303.167 111.833,303.833 113.5,304.5C 114.167,305.5 114.833,306.5 115.5,307.5C 112.326,306.99 109.992,305.323 108.5,302.5 Z"/></g>
<g><path style="opacity:0.114" fill="#d2f8cc" d="M 254.5,295.5 C 256.988,296.74 258.821,298.74 260,301.5C 264.238,304.846 268.071,308.512 271.5,312.5C 268.06,310.945 264.727,309.112 261.5,307C 258.914,303.264 256.581,299.43 254.5,295.5 Z"/></g>
<g><path style="opacity:0.396" fill="#b1daad" d="M 324.5,278.5 C 315.932,294.255 307.099,309.922 298,325.5C 296.085,326.916 294.585,326.582 293.5,324.5C 293.833,324.5 294.167,324.5 294.5,324.5C 295.675,324.719 296.675,324.386 297.5,323.5C 305.797,307.876 314.797,292.876 324.5,278.5 Z"/></g>
<g><path style="opacity:0.733" fill="#caf4c4" d="M 271.5,312.5 C 272.873,312.343 274.207,312.51 275.5,313C 279.268,315.209 282.934,317.375 286.5,319.5C 286.833,320.167 287.167,320.833 287.5,321.5C 281.835,319.003 276.502,316.003 271.5,312.5 Z"/></g>
<g><path style="opacity:0.184" fill="#d5f7d2" d="M 287.5,321.5 C 289.933,321.273 291.599,322.273 292.5,324.5C 292.565,324.938 292.399,325.272 292,325.5C 290.603,323.93 289.103,322.596 287.5,321.5 Z"/></g>
<g><path style="opacity:0.922" fill="#96e48d" d="M 286.5,319.5 C 288.894,320.015 291.228,320.681 293.5,321.5C 294.404,322.209 294.737,323.209 294.5,324.5C 294.167,324.5 293.833,324.5 293.5,324.5C 293.167,324.5 292.833,324.5 292.5,324.5C 291.599,322.273 289.933,321.273 287.5,321.5C 287.167,320.833 286.833,320.167 286.5,319.5 Z"/></g>
</svg>
